<?xml version="1.0" encoding="UTF-8" standalone="no"?>
<!-- Created with Inkscape (http://www.inkscape.org/) -->

<svg
   xmlns:dc="http://purl.org/dc/elements/1.1/"
   xmlns:cc="http://creativecommons.org/ns#"
   xmlns:rdf="http://www.w3.org/1999/02/22-rdf-syntax-ns#"
   xmlns:svg="http://www.w3.org/2000/svg"
   xmlns="http://www.w3.org/2000/svg"
   xmlns:sodipodi="http://sodipodi.sourceforge.net/DTD/sodipodi-0.dtd"
   xmlns:inkscape="http://www.inkscape.org/namespaces/inkscape"
   version="1.1"
   id="svg2"
   width="160px"
   height="30px"
   viewBox="0 0 90 20"
   sodipodi:docname="logo.svg"
   inkscape:version="0.92.4 5da689c313, 2019-01-14">
  <metadata
     id="metadata8">
    <rdf:RDF>
      <cc:Work
         rdf:about="">
        <dc:format>image/svg+xml</dc:format>
        <dc:type
           rdf:resource="http://purl.org/dc/dcmitype/StillImage" />
        <dc:title></dc:title>
      </cc:Work>
    </rdf:RDF>
  </metadata>
  <defs
     id="defs6" />
  <sodipodi:namedview
     pagecolor="#ffffff"
     bordercolor="#666666"
     borderopacity="1"
     objecttolerance="10"
     gridtolerance="10"
     guidetolerance="10"
     inkscape:pageopacity="0"
     inkscape:pageshadow="2"
     inkscape:window-width="1366"
     inkscape:window-height="712"
     id="namedview4"
     showgrid="false"
     inkscape:zoom="6.3351275"
     inkscape:cx="36.811357"
     inkscape:cy="14.760106"
     inkscape:window-x="0"
     inkscape:window-y="0"
     inkscape:window-maximized="1"
     inkscape:current-layer="svg2" />
  <path
     style="fill:#000000;stroke-width:0.06495264"
     d="M 5.4467453,19.158918 C 4.1968382,19.055896 3.3141195,18.795623 2.5723514,18.311392 1.3630307,17.521939 0.68541967,16.554911 0.33664465,15.120786 0.15465042,14.372444 0.05729691,11.452049 0.09903829,7.9931056 0.13335035,5.1498026 0.18503762,4.5422966 0.47205954,3.6088026 0.72387322,2.7898176 1.0269781,2.2997886 1.7009738,1.622018 2.2313786,1.0886427 2.4088658,0.95567839 2.9373345,0.69580009 c 0.7150876,-0.3516495 1.4038349,-0.5417961 2.2733424,-0.6276154 0.7971476,-0.078678 7.7047361,-0.078904 8.7789751,-2.876e-4 1.007681,0.073745 1.740851,0.2518713 2.430722,0.5905518 1.295768,0.63613521 2.266967,1.85140171 2.622381,3.28139671 0.195772,0.78768 0.254125,1.702699 0.29991,4.702786 0.07371,4.8298174 -0.116957,6.7590064 -0.779796,7.8900554 -0.474712,0.810035 -1.372101,1.641314 -2.212815,2.0498 -0.784291,0.38107 -1.425354,0.511615 -2.857916,0.581985 -1.480968,0.07275 -7.1428373,0.06884 -8.0453927,-0.0056 z m 8.4539067,-1.751622 c 1.275932,-0.13937 1.898931,-0.392171 2.551381,-1.035299 0.612709,-0.603956 0.865613,-1.189335 1.038769,-2.404369 0.03809,-0.267313 0.08528,-1.859772 0.104855,-3.538798 C 17.645897,6.1196106 17.538317,4.6787206 17.09463,3.7184356 16.828603,3.1426626 16.223852,2.5289526 15.638703,2.2409386 14.78105,1.8187978 14.636969,1.8060637 10.374411,1.7756734 6.0310149,1.7447067 4.8885143,1.7944524 4.1995476,2.0445336 c -1.0684991,0.387845 -1.8485404,1.247419 -2.1329059,2.350378 -0.1703635,0.660783 -0.2323616,2.054105 -0.2323616,5.22201 0,4.2396434 0.070544,5.0234334 0.537494,5.9719444 0.5098146,1.03558 1.6356078,1.678226 3.2286186,1.843019 0.5761892,0.05961 7.7233053,0.03843 8.3002593,-0.02459 z M 8.9410791,14.484562 C 6.4269996,14.096609 4.5935056,11.803053 4.78251,9.2825196 c 0.1531167,-2.04194 1.3653589,-3.613897 3.3547691,-4.350245 0.4689548,-0.173577 0.6612341,-0.207404 1.3277956,-0.233599 0.9777613,-0.03842 1.5379253,0.07136 2.3382943,0.458292 1.070551,0.517543 1.839805,1.267177 2.343819,2.284041 0.397116,0.801193 0.501647,1.343287 0.463415,2.403247 -0.02616,0.7252424 -0.05751,0.9192204 -0.222204,1.3747554 -0.282214,0.7806 -0.56786,1.219413 -1.221008,1.875734 -0.496367,0.498779 -0.677711,0.63277 -1.20164,0.887861 -0.339378,0.165237 -0.807037,0.34558 -1.039242,0.400763 -0.548191,0.130274 -1.4869184,0.178119 -1.9854299,0.101193 z m 1.7846639,-1.87297 c 0.990774,-0.308363 1.780138,-1.149813 2.049778,-2.185032 0.190813,-0.7325794 0.09627,-1.6734194 -0.233013,-2.3188724 -0.17639,-0.345751 -0.766376,-0.965747 -1.153931,-1.212624 -0.94372,-0.601162 -2.2465345,-0.623546 -3.2466343,-0.05578 -0.8234916,0.467503 -1.4489498,1.390934 -1.5858787,2.341403 -0.2059822,1.4297914 0.6269206,2.8257364 2.0305809,3.4032544 0.4814419,0.198083 1.5472381,0.211861 2.1390981,0.02765 z M 14.27157,5.4423786 c -0.30596,-0.171159 -0.552098,-0.601935 -0.552098,-0.96625 0,-0.631564 0.502295,-1.159613 1.103056,-1.159613 0.752476,0 1.300621,0.687689 1.138066,1.427792 -0.05306,0.241593 -0.365356,0.617833 -0.623722,0.751439 -0.273553,0.14146 -0.760653,0.117058 -1.065302,-0.05337 z M 39.694914,16.702967 c -0.292916,-0.09458 -0.514614,-0.276242 -0.672761,-0.55128 -0.171176,-0.297698 -0.640189,-1.705458 -0.776248,-2.329937 -0.04854,-0.222803 -0.206542,-0.828914 -0.351106,-1.346911 -0.144565,-0.517998 -0.328687,-1.256713 -0.409161,-1.64159 -0.08047,-0.384878 -0.165472,-0.677164 -0.188885,-0.649526 -0.02341,0.02764 -0.210429,0.532523 -0.415587,1.121968 -0.642428,1.845767 -0.630584,1.816831 -0.712354,1.740446 -0.04117,-0.03846 -0.06582,-0.190037 -0.05479,-0.336847 0.01883,-0.250568 0.01391,-0.2592 -0.08034,-0.140846 -0.05522,0.06935 -0.100402,0.167135 -0.100402,0.217312 0,0.05018 -0.04326,0.168813 -0.09613,0.263635 -0.05287,0.09482 -0.211335,0.552376 -0.352136,1.016787 -0.273071,0.900689 -0.536368,1.549927 -0.659409,1.625971 -0.05455,0.03371 -0.06255,-0.01173 -0.02899,-0.164536 0.03241,-0.14754 0.02472,-0.19773 -0.02553,-0.166675 -0.04733,0.02925 -0.0719,-0.03324 -0.0719,-0.182899 0,-0.125033 -0.02436,-0.242386 -0.05412,-0.260783 -0.02977,-0.0184 -0.04063,-0.125385 -0.02414,-0.237748 0.02239,-0.152581 0.04587,-0.182079 0.09273,-0.116527 0.04677,0.06543 0.05291,0.05749 0.02414,-0.03121 -0.02123,-0.06544 -0.0386,-0.130286 -0.0386,-0.144104 0,-0.06758 -0.251327,0.0766 -0.446665,0.256241 l -0.21933,0.201701 0.03768,-0.389716 c 0.02072,-0.214344 0.05619,-0.462787 0.07882,-0.552097 0.0333,-0.131437 0.02686,-0.143815 -0.03381,-0.06495 -0.126559,0.164496 -0.01444,-0.726469 0.196159,-1.558863 0.244609,-0.966797 0.448412,-1.593776 1.488485,-4.5791624 1.01005,-2.899211 0.998375,-2.869577 1.224169,-3.107287 0.253379,-0.26675 0.497837,-0.37485 0.853929,-0.377608 0.440216,-0.0034 0.812799,0.216696 1.010826,0.597151 0.04724,0.09077 0.207307,0.777641 0.355695,1.526387 0.148389,0.748747 0.39778,1.960545 0.554201,2.692886 0.156422,0.732341 0.304218,1.4557524 0.328437,1.6075794 0.02422,0.151826 0.06546,0.276048 0.09164,0.276048 0.02618,0 0.112655,-0.211908 0.19216,-0.470906 0.0795,-0.258999 0.26126,-0.8508804 0.403901,-1.3152924 0.142642,-0.464411 0.344722,-1.08936 0.449065,-1.388775 0.104344,-0.299415 0.189716,-0.556319 0.189716,-0.570897 0,-0.01458 0.04011,0.01096 0.08914,0.05676 0.05941,0.0555 0.07777,0.167971 0.05507,0.337268 -0.04272,0.31847 0.07265,0.271325 0.184288,-0.07531 0.04298,-0.133468 0.100279,-0.271897 0.12732,-0.307621 0.02704,-0.03572 0.12925,-0.269553 0.227134,-0.519621 0.50011,-1.277652 0.994198,-1.965886 1.493266,-2.080029 l 0.194561,-0.0445 -0.203358,0.150605 c -0.111848,0.08283 -0.206261,0.210107 -0.209809,0.282832 -0.02638,0.540798 -0.103528,0.805279 -0.234735,0.804745 -0.03483,-1.43e-4 -0.07359,0.03847 -0.08614,0.0858 -0.0151,0.057 4.55e-4,0.05316 0.0461,-0.01137 0.0379,-0.05359 0.06935,-0.06491 0.0699,-0.02517 0.0014,0.101636 0.277889,0.05953 0.480399,-0.07316 0.164945,-0.108076 0.170122,-0.107309 0.170122,0.02521 0,0.07517 -0.05634,0.284959 -0.125205,0.466191 -0.08531,0.224522 -0.09748,0.306505 -0.0382,0.257308 0.150644,-0.125024 -0.124153,1.015499 -0.829227,3.441637 -0.233594,0.8037904 -0.647379,2.3321264 -0.919521,3.3963034 -0.665501,2.602351 -0.790369,2.912043 -1.301508,3.227945 -0.242904,0.150122 -0.702721,0.216525 -0.948918,0.137033 z m 18.418197,-0.09284 c 0.02542,-0.119436 0.01545,-0.169402 -0.02838,-0.14231 -0.03989,0.02465 -0.06756,-0.02474 -0.06756,-0.12063 0,-0.08931 -0.02934,-0.180512 -0.06519,-0.202672 -0.03585,-0.02216 -0.0473,-0.11157 -0.02544,-0.198691 0.03155,-0.125711 0.01485,-0.157975 -0.08095,-0.156335 -0.06639,0.0011 -0.177446,0.04498 -0.24679,0.09743 -0.06934,0.05245 -0.153525,0.09536 -0.187067,0.09536 -0.06314,0 -0.02841,-0.452998 0.05229,-0.682003 0.03764,-0.106805 0.03266,-0.11258 -0.02798,-0.03248 -0.122049,0.161216 -0.0084,-0.489983 0.175727,-1.006766 0.08909,-0.250068 0.275209,-0.680542 0.413596,-0.956609 0.138388,-0.276068 0.251614,-0.546433 0.251614,-0.600812 0,-0.05438 0.03236,-0.09887 0.0719,-0.09887 0.03955,0 0.0559,-0.04171 0.03634,-0.09268 -0.01956,-0.05097 0.0035,-0.125121 0.0513,-0.16477 0.04777,-0.03965 0.07259,-0.126655 0.05515,-0.193345 -0.0216,-0.0826 0.01153,-0.134978 0.103917,-0.164301 0.13091,-0.04155 0.131681,-0.04844 0.02218,-0.198023 -0.0624,-0.08524 -0.193829,-0.189145 -0.29207,-0.230906 -0.09824,-0.04176 -0.17862,-0.09603 -0.17862,-0.120588 0,-0.08854 0.166236,-0.252434 0.35724,-0.352212 0.150765,-0.07876 0.166253,-0.102378 0.06845,-0.10439 -0.226022,-0.0047 0.274551,-0.444157 0.787923,-0.691803 0.446685,-0.215477 0.479318,-0.247061 0.762471,-0.7379654 0.162697,-0.282068 0.32546,-0.531175 0.361695,-0.553569 0.03623,-0.02239 0.231614,-0.323915 0.434175,-0.670045 0.202561,-0.34613 0.450912,-0.730981 0.551891,-0.855223 0.100979,-0.124242 0.183599,-0.243799 0.183599,-0.265681 0,-0.08835 0.66314,-1.134016 1.389715,-2.191361 0.879863,-1.280419 1.097872,-1.469392 1.695159,-1.469392 0.647811,0 1.050472,0.417785 1.247558,1.294413 0.09906,0.440598 0.114849,0.788794 0.103859,2.289581 -0.0071,0.973477 0.0099,1.769959 0.03789,1.769959 0.02797,0 0.05086,0.04384 0.05086,0.09743 0,0.05359 -0.02436,0.09743 -0.05413,0.09743 -0.02977,0 -0.05412,0.04384 -0.05412,0.09743 0,0.07992 0.113778,0.09747 0.633289,0.09767 0.538827,1.95e-4 0.6672,0.02146 0.860622,0.142484 0.176268,0.11029 0.201801,0.14778 0.113667,0.166902 -0.06252,0.01356 -0.113667,0.05175 -0.113667,0.08485 0,0.0331 -0.04384,0.06019 -0.09743,0.06019 -0.05359,0 -0.09743,0.04384 -0.09743,0.09743 0,0.05361 -0.05751,0.09743 -0.127866,0.09743 -0.144032,0 -0.121351,0.1412794 0.05568,0.3468694 0.0946,0.109855 0.0928,0.126947 -0.02228,0.211096 -0.06887,0.05036 -0.165201,0.09156 -0.214064,0.09156 -0.04887,0 -0.07156,0.02798 -0.05042,0.06219 0.04903,0.07933 -0.255712,0.237965 -0.570635,0.297043 -0.133698,0.02508 -0.267721,0.09335 -0.297827,0.151712 -0.08307,0.161007 -0.08644,1.044786 -0.0077,2.014486 0.03882,0.478025 0.05737,0.882355 0.04121,0.898512 -0.01615,0.01616 -0.09027,-0.03152 -0.164694,-0.105943 -0.07442,-0.07442 -0.14993,-0.135318 -0.167792,-0.135318 -0.06295,0 -0.03139,0.513857 0.06131,0.998354 0.09216,0.481701 0.07375,0.950226 -0.03733,0.950226 -0.03105,0 -0.05646,-0.04293 -0.05646,-0.09539 0,-0.05787 -0.03811,-0.08077 -0.09688,-0.05821 -0.05531,0.02122 -0.11403,-0.0075 -0.136855,-0.06699 -0.02198,-0.05729 -0.07872,-0.104168 -0.126073,-0.104168 -0.04736,0 -0.104483,-0.05792 -0.126956,-0.12871 -0.03878,-0.122187 -0.0467,-0.12301 -0.156354,-0.01624 -0.06353,0.06186 -0.133887,0.163623 -0.156348,0.22614 -0.02246,0.06252 -0.07023,0.113667 -0.106161,0.113667 -0.07987,0 -0.261805,-0.33944 -0.268082,-0.500157 -0.0044,-0.112121 -0.0065,-0.112101 -0.05088,5.2e-4 -0.03877,0.09829 -0.07,0.07528 -0.191698,-0.14125 -0.275166,-0.489592 -0.421486,-1.266515 -0.565532,-3.002845 l -0.04094,-0.49352 -0.563718,0.126655 c -0.310045,0.06966 -0.858324,0.199908 -1.218398,0.28944 l -0.654679,0.162785 -0.350355,0.528843 c -0.434674,0.656116 -0.730243,1.152372 -1.162385,1.951621 -0.274231,0.507193 -0.351729,0.606429 -0.422481,0.54099 -0.06176,-0.05712 -0.06825,-0.114795 -0.02259,-0.200782 0.03828,-0.0721 0.04037,-0.144323 0.0052,-0.179498 -0.08095,-0.08095 -0.318316,0.299073 -0.664467,1.063845 -0.15778,0.348591 -0.371028,0.728564 -0.473887,0.844384 l -0.187015,0.210583 0.03917,-0.184062 z m 5.430714,-7.4887924 0.254132,-0.04064 v -0.489667 c 0,-0.269319 -0.01251,-0.477163 -0.02779,-0.461878 -0.0616,0.0616 -0.686688,1.039746 -0.686688,1.074536 0,0.02058 0.0464,0.01961 0.103107,-0.0022 0.05671,-0.02176 0.217467,-0.05785 0.35724,-0.0802 z m 25.488232,6.8534034 c -0.287558,-0.07551 -0.685815,-0.119941 -1.083579,-0.120879 -0.542283,-0.0013 -0.63347,-0.01714 -0.662016,-0.11515 -0.04447,-0.152699 -0.210187,-1.103004 -0.297308,-1.705007 -0.03878,-0.26793 -0.128262,-0.779432 -0.198853,-1.136671 -0.222294,-1.125018 -0.493711,-2.78502 -0.820079,-5.0157274 l -0.315702,-2.157809 -0.259811,0.0362 c -0.142895,0.01991 -0.620102,0.121372 -1.060455,0.225468 -0.44036,0.104096 -0.864176,0.191817 -0.941814,0.194936 -0.07764,0.0031 -0.327062,0.06888 -0.554273,0.146143 l -0.413105,0.140474 -0.148001,0.454669 c -0.0814,0.250067 -0.224327,0.636767 -0.317612,0.859331 -0.09329,0.222565 -0.16965,0.412552 -0.169702,0.422193 -4.5e-5,0.0096 0.35179,0.0097 0.781861,6.1e-5 0.430064,-0.0096 0.87271,0.0061 0.983649,0.0348 0.18709,0.04848 0.193975,0.06 0.09501,0.158971 -0.164206,0.164206 -0.128905,0.236374 0.136869,0.279798 0.525135,0.0858 0.591277,0.107708 0.705158,0.233547 0.101086,0.111697 0.104353,0.13871 0.02297,0.190182 -0.05216,0.033 -0.06561,0.06048 -0.02989,0.06107 0.03572,5.84e-4 -0.01934,0.07356 -0.122365,0.162167 -0.158952,0.136703 -0.181796,0.195085 -0.150878,0.385614 0.03518,0.216807 -0.07251,0.4172624 -0.171163,0.3186064 -0.02351,-0.02351 -0.04274,0.0075 -0.04274,0.06883 0,0.155614 -0.379622,0.299565 -0.793585,0.300927 -0.188694,6.48e-4 -0.547687,0.04584 -0.797755,0.100481 -0.250068,0.05464 -0.600812,0.125007 -0.779432,0.156362 -0.791707,0.138979 -0.797878,0.144142 -1.244278,1.041081 -0.222242,0.446549 -0.405863,0.848445 -0.408045,0.893099 -0.0056,0.113804 0.0874,0.103406 0.723046,-0.08088 0.30746,-0.08914 0.773859,-0.17862 1.036436,-0.198854 0.262578,-0.02023 0.725859,-0.06398 1.029513,-0.09721 0.925737,-0.101317 1.045354,-0.07688 0.804178,0.164298 -0.05784,0.05784 -0.08668,0.123644 -0.0641,0.146234 0.02259,0.02259 0.284122,0.05383 0.581177,0.06942 0.382636,0.02008 0.584703,0.06199 0.693083,0.143743 l 0.152983,0.115396 -0.201808,0.201807 c -0.110991,0.110993 -0.22923,0.201806 -0.262746,0.201806 -0.07322,0 -0.02267,0.311742 0.0587,0.362033 0.113973,0.07044 0.05349,0.220997 -0.104736,0.260708 -0.08906,0.02235 -0.14537,0.06744 -0.125125,0.100204 0.06779,0.109668 -0.518029,0.304364 -1.231099,0.409158 -0.388436,0.05709 -0.987624,0.171949 -1.331529,0.255252 -0.343905,0.0833 -0.859109,0.205324 -1.144901,0.271158 -0.285791,0.06583 -0.65115,0.175309 -0.811908,0.243277 -0.160758,0.06797 -0.67226,0.246482 -1.136671,0.396698 -0.634652,0.205281 -0.897639,0.262148 -1.058773,0.228945 -0.260318,-0.05364 -0.330155,-0.113521 -0.215228,-0.18455 0.06054,-0.03741 0.06477,-0.06658 0.01419,-0.09784 -0.05116,-0.03162 -0.0523,-0.08147 -0.004,-0.171843 0.03748,-0.07002 0.05249,-0.152618 0.03337,-0.183556 -0.01912,-0.03094 0.0077,-0.09147 0.05954,-0.13452 0.08239,-0.06838 0.08218,-0.09677 -0.0016,-0.224682 -0.05276,-0.08053 -0.168591,-0.179522 -0.257401,-0.219986 -0.195254,-0.08896 -0.202574,-0.165161 -0.03221,-0.335523 0.08524,-0.08523 0.142837,-0.256692 0.169111,-0.503383 0.02192,-0.205767 0.08077,-0.518605 0.130775,-0.695197 0.118571,-0.418693 1.389766,-3.8144984 1.46252,-3.9068974 0.122072,-0.155028 0.966248,-2.448579 0.966248,-2.625198 0,-0.06513 0.03654,-0.130679 0.08119,-0.145672 0.120117,-0.04033 -0.05504,-0.340515 -0.250711,-0.429667 -0.196358,-0.08947 -0.197761,-0.225502 -0.0039,-0.37799 0.08324,-0.06547 0.140486,-0.1516 0.127223,-0.191395 -0.0408,-0.122404 0.277848,-0.442445 0.632944,-0.635715 0.185725,-0.101082 0.437007,-0.293731 0.558404,-0.428108 0.121403,-0.134378 0.27877,-0.2595 0.349705,-0.27805 0.14717,-0.03849 0.154717,-0.0205 0.06317,0.150566 -0.05906,0.110353 -0.04408,0.120903 0.146144,0.102893 0.11657,-0.01104 0.69422,-0.152712 1.283665,-0.314833 0.761505,-0.209444 1.250326,-0.305918 1.688769,-0.333295 0.339378,-0.02119 0.850016,-0.05839 1.134755,-0.08267 l 0.517705,-0.04414 -0.116941,0.178475 c -0.06432,0.09816 -0.0996,0.195814 -0.07841,0.217006 0.02119,0.02119 0.281576,0.05129 0.57863,0.06688 0.380415,0.01997 0.584899,0.06214 0.691616,0.142638 l 0.151521,0.11429 -0.207575,0.202912 c -0.114161,0.111602 -0.235791,0.202912 -0.270288,0.202912 -0.08653,0 -0.07821,0.06618 0.03581,0.284802 0.105125,0.201576 0.04126,0.364725 -0.142786,0.364725 -0.05132,0 -0.07788,0.02495 -0.05904,0.05546 0.01885,0.0305 -0.03788,0.08833 -0.126073,0.128512 -0.184362,0.084 -0.185063,0.08909 -0.08637,0.624717 l 0.07398,0.401469 0.1531,-0.153104 c 0.08421,-0.08421 0.18592,-0.28342 0.226028,-0.442695 0.0401,-0.159275 0.10017,-0.289591 0.133471,-0.289591 0.08989,0 0.245742,0.412117 0.37935,1.003116 0.08885,0.393026 0.120468,0.466686 0.127015,0.295937 0.0075,-0.195328 0.03945,-0.142728 0.226944,0.373613 0.251705,0.693155 0.549064,1.889489 0.770871,3.1013544 l 0.154549,0.844384 0.177658,-0.357239 c 0.09771,-0.196482 0.273321,-0.576455 0.390235,-0.844385 0.116915,-0.2679304 0.330804,-0.7355894 0.475304,-1.0392434 1.490702,-3.132599 1.978178,-4.070901 2.015831,-3.880125 0.01243,0.06295 0.05177,0.09643 0.08741,0.0744 0.03565,-0.02203 0.0042,0.07874 -0.06986,0.223952 -0.14832,0.290721 -0.167611,0.399093 -0.07106,0.399093 0.035,0 0.126794,-0.124222 0.20399,-0.276048 0.0772,-0.151827 0.195273,-0.349121 0.262382,-0.438431 0.06711,-0.08931 0.352297,-0.513125 0.633743,-0.941813 0.599396,-0.912966 0.961455,-1.30029 1.443449,-1.544154 0.408494,-0.206681 0.754744,-0.24888 0.368594,-0.04492 -0.131653,0.06954 -0.260389,0.160445 -0.286084,0.202023 -0.02908,0.04705 -0.01841,0.0581 0.02827,0.02925 0.114356,-0.07068 0.08692,0.0398 -0.05492,0.221131 -0.06986,0.08931 -0.127665,0.207029 -0.128464,0.261597 -0.0019,0.134722 -0.192363,0.39803 -0.258336,0.357255 -0.02923,-0.01807 -0.093,0.01798 -0.141701,0.0801 -0.08181,0.104364 -0.07898,0.105545 0.03728,0.01552 0.112784,-0.08733 0.121844,-0.08677 0.08738,0.0054 -0.02952,0.07897 0.0016,0.100431 0.133984,0.09241 0.09484,-0.0058 0.239812,-0.04662 0.322171,-0.09083 0.280895,-0.150785 0.275679,-0.03874 -0.02058,0.44177 -0.162849,0.264129 -0.251223,0.443 -0.196384,0.397492 0.05483,-0.04551 0.0997,-0.06765 0.0997,-0.0492 0,0.06129 -0.62402,1.424811 -1.329587,2.905229 -0.873587,1.832955 -1.632364,3.6219844 -2.30715,5.4397434 -0.813792,2.192201 -1.185633,3.16291 -1.228164,3.206169 -0.02146,0.02183 -0.243624,-0.01404 -0.493692,-0.07971 z m -2.52126,-9.8124844 c -0.02073,-0.05182 -0.03613,-0.03642 -0.03924,0.03924 -0.0028,0.06847 0.01254,0.106833 0.03412,0.08525 0.02158,-0.02158 0.02389,-0.07761 0.0051,-0.124493 z m -0.04437,-0.511276 c 0,-0.03362 -0.02923,-0.06112 -0.06495,-0.06112 -0.03572,0 -0.06495,0.04557 -0.06495,0.101262 0,0.05569 0.02923,0.0832 0.06495,0.06112 0.03572,-0.02208 0.06495,-0.06765 0.06495,-0.101262 z M 28.288869,15.685704 c -0.10949,-0.100205 -0.152693,-0.179382 -0.108092,-0.198097 0.04086,-0.01715 0.05938,-0.08823 0.04114,-0.157967 -0.019,-0.07266 -5.84e-4,-0.126791 0.04321,-0.126791 0.042,0 0.0583,-0.02923 0.03622,-0.06495 -0.02208,-0.03572 -0.0019,-0.0654 0.04488,-0.06595 0.06597,-7.73e-4 0.06471,-0.01386 -0.0056,-0.05837 -0.07567,-0.04792 -0.07401,-0.06114 0.01008,-0.0802 0.08837,-0.02002 0.08595,-0.05066 -0.01975,-0.250151 -0.06625,-0.125034 -0.141423,-0.268422 -0.167055,-0.318642 -0.02904,-0.05689 0.0083,-0.13577 0.09908,-0.209281 0.08013,-0.06489 0.128943,-0.145074 0.108472,-0.178198 -0.08023,-0.129815 0.411041,-0.456697 0.81031,-0.539165 0.360927,-0.07455 0.398285,-0.09821 0.433572,-0.274648 0.07118,-0.355897 1.473775,-4.1987684 1.673365,-4.5847324 0.05347,-0.103407 0.167408,-0.372431 0.253187,-0.597831 0.08578,-0.225399 0.245265,-0.640448 0.354414,-0.922331 0.109149,-0.281883 0.216946,-0.596715 0.23955,-0.699627 l 0.0411,-0.187114 -0.33422,0.01183 c -0.267441,0.0095 -0.362622,-0.01664 -0.476373,-0.130657 -0.0863,-0.0865 -0.116631,-0.160786 -0.0772,-0.189062 0.03572,-0.02562 0.07321,-0.147738 0.0833,-0.271379 0.01009,-0.123641 0.04407,-0.240704 0.07552,-0.260138 0.05724,-0.03537 -0.05139,-0.320815 -0.206307,-0.542133 -0.07,-0.1 -0.06123,-0.135145 0.05823,-0.233289 0.07735,-0.06355 0.13581,-0.168955 0.129905,-0.234224 -0.02169,-0.239772 0.450482,-0.473626 1.305962,-0.646808 0.438392,-0.08875 0.851576,-0.190526 0.918187,-0.226175 0.06661,-0.03565 0.380187,-0.08015 0.696835,-0.09888 0.316648,-0.01874 0.773017,-0.05049 1.014154,-0.07055 0.344321,-0.02866 0.43843,-0.01752 0.43843,0.05188 0,0.0486 -0.03459,0.122959 -0.07686,0.165232 -0.123914,0.123913 -0.0014,0.177516 0.368711,0.161274 0.263311,-0.01156 0.382196,0.01507 0.49793,0.111506 0.08362,0.06968 0.122804,0.12768 0.08708,0.128894 -0.03572,0.0012 -0.06941,0.07908 -0.07485,0.173027 -0.0054,0.09395 -0.04697,0.193736 -0.09229,0.221745 -0.0647,0.03999 -0.05909,0.08649 0.02613,0.216564 0.13448,0.205242 0.138781,0.357538 0.01148,0.406389 -0.05338,0.02048 -0.0833,0.0595 -0.06649,0.08671 0.0345,0.05582 -0.126863,0.210538 -0.327423,0.31393 -0.07355,0.03792 -0.391883,0.113999 -0.707411,0.169073 -0.315528,0.05507 -0.584884,0.111332 -0.598568,0.125016 -0.01368,0.01368 -0.08268,0.233477 -0.153336,0.488429 -0.07065,0.254951 -0.365552,1.055596 -0.655338,1.77921 -0.289785,0.723614 -0.655392,1.676482 -0.81246,2.117484 -0.157068,0.4410034 -0.446521,1.1353454 -0.643229,1.5429844 -0.196709,0.407639 -0.416567,0.89063 -0.488574,1.073314 l -0.130922,0.332152 0.359345,-0.0449 c 0.334648,-0.04181 0.359344,-0.03565 0.359344,0.08968 0,0.07402 -0.03507,0.134579 -0.07794,0.134579 -0.06003,0 -0.05978,0.01817 0.0011,0.07903 0.04607,0.04607 0.218492,0.07296 0.413389,0.06448 0.353611,-0.01539 0.734532,0.146249 0.575823,0.244337 -0.04349,0.02688 -0.07451,0.06021 -0.06895,0.07408 0.0056,0.01387 -0.02396,0.112901 -0.06561,0.220073 -0.06211,0.159816 -0.05672,0.228571 0.02997,0.382327 0.09286,0.164702 0.09417,0.200199 0.01083,0.292287 -0.05217,0.05765 -0.09233,0.132908 -0.08925,0.167241 0.01819,0.202456 -1.078084,0.548451 -2.385636,0.752935 -0.214344,0.03352 -0.565088,0.106685 -0.779432,0.162588 -0.451879,0.117854 -0.887853,0.195214 -1.408952,0.250006 -0.334691,0.03519 -0.386988,0.02306 -0.552098,-0.128048 z m 17.192444,-0.0228 c -0.690755,-0.148971 -1.270733,-0.390406 -1.833639,-0.763312 -0.433838,-0.287403 -0.609392,-0.447339 -0.404885,-0.368862 0.05859,0.02248 0.155096,0.04491 0.21447,0.04984 0.05937,0.0049 0.230582,0.07367 0.380465,0.152755 0.402202,0.212219 0.397018,0.06809 -0.0072,-0.200299 -0.395672,-0.262711 -0.907373,-0.910895 -1.093831,-1.385581 -0.174492,-0.444221 -0.166754,-1.174378 0.01767,-1.667297 0.144643,-0.386596 0.671955,-1.087228 0.916957,-1.218349 0.151163,-0.0809 0.142385,-0.05307 -0.08837,0.280224 -0.09961,0.143867 -0.103823,0.170659 -0.0219,0.139224 0.0855,-0.03281 0.08154,0.0055 -0.02521,0.243967 -0.07026,0.156928 -0.101892,0.307657 -0.07104,0.338508 0.03085,0.03085 0.01498,0.152872 -0.03565,0.274037 -0.0502,0.120133 -0.09126,0.245854 -0.09126,0.279381 0,0.102449 0.240006,0.0051 0.395462,-0.160332 0.08074,-0.08595 0.171751,-0.156264 0.202242,-0.156264 0.03049,0 0.03551,0.194492 0.01116,0.432203 -0.03272,0.319336 -0.02471,0.420107 0.03067,0.385883 0.04122,-0.02548 0.07495,-0.01342 0.07495,0.0268 0,0.04022 0.07409,0.170263 0.164655,0.288994 0.515845,0.676308 1.938329,1.093631 3.234931,0.949051 0.689183,-0.07685 1.578116,-0.338245 1.833546,-0.539166 l 0.159303,-0.125308 -0.132233,-0.185705 C 49.105736,12.442846 47.895882,11.401522 46.954389,10.70362 45.96462,9.9699326 44.737738,8.7899196 44.488438,8.3318736 c -0.193715,-0.355919 -0.371131,-0.97396 -0.371131,-1.292864 0,-0.116778 0.06425,-0.408049 0.142783,-0.647269 0.320749,-0.97707 1.701876,-1.970175 3.332183,-2.39602 0.632963,-0.165333 1.623719,-0.15369 2.1261,0.02499 0.73471,0.261306 1.344617,0.824704 1.694698,1.565468 0.346626,0.733455 0.239578,1.411865 -0.348851,2.210802 -0.254102,0.345006 -0.313139,0.273401 -0.128921,-0.156363 0.140282,-0.327264 0.171508,-0.469179 0.06179,-0.280797 -0.120799,0.207399 -0.173662,0.117815 -0.114985,-0.194858 0.03184,-0.169688 0.03773,-0.396211 0.01308,-0.503383 l -0.04482,-0.194857 -0.04747,0.162381 c -0.04022,0.137601 -0.04867,0.122732 -0.05537,-0.09743 -0.0043,-0.142896 -0.07134,-0.39134 -0.148873,-0.552098 -0.135218,-0.280356 -0.141964,-0.284996 -0.16527,-0.113667 -0.01336,0.09824 -0.04785,0.17862 -0.07663,0.17862 -0.02879,0 -0.07103,0.116915 -0.09388,0.25981 -0.02285,0.142896 -0.07473,0.259811 -0.115287,0.259811 -0.04056,0 -0.231557,-0.168065 -0.424443,-0.373478 -0.192886,-0.205412 -0.320529,-0.310408 -0.283651,-0.233323 0.0639,0.133556 0.05814,0.136792 -0.122149,0.06874 -0.398694,-0.150491 -1.647471,0.264333 -2.500755,0.83071 -0.198538,0.131783 -0.360979,0.269534 -0.360979,0.306114 0,0.150541 1.0808,1.117995 2.181149,1.952407 1.968633,1.4928484 2.623731,2.1341234 2.967459,2.9048534 0.20428,0.45805 0.225814,1.236837 0.04729,1.710208 -0.273502,0.725204 -1.11063,1.365343 -2.275281,1.739874 -0.765351,0.246123 -0.882365,0.261425 -2.206135,0.288486 -0.922739,0.01886 -1.240581,8.25e-4 -1.688768,-0.09583 z m 5.171418,-9.9211634 c -0.05495,-0.101399 -0.101081,-0.163816 -0.102512,-0.138704 -0.0044,0.07721 0.146713,0.378777 0.175415,0.350075 0.01485,-0.01486 -0.01795,-0.109972 -0.0729,-0.211371 z m 3.272425,9.9604024 c 0,-0.06027 -0.02923,-0.109581 -0.06495,-0.109581 -0.03572,0 -0.06495,-0.05673 -0.06495,-0.126072 0,-0.06934 -0.02531,-0.141713 -0.05624,-0.160831 -0.03093,-0.01912 -0.04307,-0.103658 -0.02697,-0.187866 0.03423,-0.179049 -0.127516,-0.211553 -0.337191,-0.06776 -0.07046,0.04832 -0.150844,0.08786 -0.17862,0.08786 -0.0701,0 -0.06322,-0.282846 0.01166,-0.479807 0.04718,-0.124096 0.0424,-0.155918 -0.01983,-0.132039 -0.06341,0.02433 -0.07207,-0.061 -0.03821,-0.376587 0.0572,-0.533076 0.141422,-0.828225 0.495153,-1.735183 0.161172,-0.413243 0.480295,-1.248238 0.709163,-1.855545 0.228867,-0.6073084 0.471227,-1.2064964 0.538577,-1.3315304 0.06735,-0.125034 0.197159,-0.431935 0.288465,-0.682002 0.0913,-0.250068 0.253574,-0.665496 0.360597,-0.923174 0.239126,-0.575741 0.339748,-0.927977 0.265089,-0.927977 -0.031,0 -0.284395,0.07086 -0.563099,0.157467 -0.9238,0.287068 -2.555689,0.686918 -2.803487,0.686918 -0.134228,0 -0.298943,-0.04014 -0.366035,-0.0892 -0.117236,-0.08573 -0.11612,-0.09106 0.02864,-0.137006 0.117936,-0.03743 0.131145,-0.06065 0.06086,-0.10698 -0.07254,-0.04781 -0.06145,-0.08295 0.05777,-0.18306 0.101446,-0.08518 0.123914,-0.138491 0.07192,-0.170627 -0.04942,-0.03054 -0.01611,-0.07792 0.09614,-0.13673 0.161736,-0.08474 0.166014,-0.09876 0.07331,-0.240235 -0.05414,-0.08263 -0.171104,-0.18335 -0.259913,-0.223814 -0.274551,-0.125094 -0.182849,-0.284234 0.293198,-0.508819 0.13451,-0.06346 0.141144,-0.07751 0.03865,-0.08188 -0.386498,-0.01648 0.656721,-0.614842 1.520216,-0.871957 0.303654,-0.09042 1.151286,-0.314695 1.883627,-0.498398 0.732341,-0.183703 1.38159,-0.379072 1.442776,-0.434154 0.06119,-0.05508 0.158461,-0.08203 0.216164,-0.05989 0.09789,0.03756 0.609949,-0.0217 2.205742,-0.255288 1.244576,-0.182175 1.201623,-0.179688 1.201623,-0.06956 0,0.05551 -0.05927,0.132642 -0.131724,0.171415 -0.250368,0.133993 -0.07007,0.16567 0.629412,0.110584 0.709857,-0.0559 1.089859,-0.02793 1.159885,0.08537 0.04396,0.07114 -0.367221,0.51755 -0.47671,0.51755 -0.101718,0 -0.0138,0.203215 0.147508,0.340958 0.131384,0.11219 0.131473,0.114855 0.007,0.211096 -0.06934,0.05361 -0.200873,0.09792 -0.292287,0.09847 -0.128474,7.69e-4 -0.144398,0.01478 -0.07014,0.06174 0.192535,0.121748 -0.613618,0.39539 -2.021254,0.6861 -0.752872,0.155486 -1.380718,0.294562 -1.395214,0.309058 -0.0145,0.0145 -0.09458,0.257367 -0.17797,0.539713 -0.08339,0.282347 -0.374347,1.057289 -0.646579,1.722096 -0.272231,0.664806 -0.653498,1.629353 -0.84726,2.1434384 -0.193762,0.514084 -0.526853,1.300057 -0.740202,1.746606 -0.213348,0.446549 -0.516112,1.125451 -0.672805,1.508672 -0.156695,0.38322 -0.307551,0.697428 -0.335237,0.698241 -0.02769,8.12e-4 -0.06788,-0.08621 -0.08931,-0.193381 -0.02143,-0.107172 -0.06398,-0.194858 -0.09454,-0.194858 -0.05837,0 -0.350726,0.600316 -0.542812,1.114601 -0.124797,0.334127 -0.489578,0.746791 -0.489578,0.553843 z M 52.608512,6.7847156 c -0.02158,-0.02158 -0.07761,-0.02389 -0.124493,-0.0051 -0.05181,0.02073 -0.03642,0.03613 0.03924,0.03924 0.06847,0.0028 0.106833,-0.01253 0.08525,-0.03411 z m 14.079837,8.9377554 c 0.07145,-0.0307 0.202977,-0.05832 0.292287,-0.06138 0.128853,-0.0044 0.142266,-0.01841 0.06495,-0.06781 -0.07682,-0.04908 -0.03903,-0.08531 0.17862,-0.171239 0.151826,-0.05994 0.276048,-0.146428 0.276048,-0.192188 0,-0.105319 0.203549,-0.172238 0.364326,-0.119775 0.101118,0.03299 0.1056,0.02769 0.02539,-0.03001 -0.08422,-0.06058 -0.08201,-0.07022 0.01624,-0.07108 0.06252,-5.2e-4 0.11344,-0.02292 0.113161,-0.04971 -8.45e-4,-0.07863 -0.334708,-0.211096 -0.532066,-0.211096 -0.298458,0 -0.209401,-0.110872 0.278712,-0.346976 0.253341,-0.122543 0.42264,-0.235465 0.376225,-0.250938 -0.04747,-0.01582 0.02914,-0.09195 0.175112,-0.173987 0.21359,-0.120042 0.271177,-0.19611 0.3254,-0.429817 0.03623,-0.156179 0.04244,-0.269474 0.01379,-0.251768 -0.07757,0.04794 -0.06296,-0.522966 0.02232,-0.872285 0.04093,-0.167646 0.219222,-0.67017 0.396211,-1.116719 0.176996,-0.446549 0.496466,-1.279238 0.709939,-1.8504204 0.21348,-0.571182 0.415989,-1.072071 0.450031,-1.113087 0.03404,-0.04102 0.151002,-0.318746 0.259914,-0.617178 0.108919,-0.298433 0.220755,-0.572105 0.248535,-0.608159 0.02777,-0.03605 0.08361,-0.163861 0.124066,-0.284013 0.07051,-0.209396 0.06754,-0.2167 -0.07177,-0.176046 -0.696877,0.203376 -1.976054,0.356719 -1.896065,0.227292 0.01973,-0.03193 0.173274,-0.100326 0.341209,-0.151992 0.167929,-0.05167 0.254179,-0.09598 0.191662,-0.09846 -0.193688,-0.0077 -0.126307,-0.109687 0.179432,-0.271547 0.23911,-0.126586 0.275503,-0.168089 0.197567,-0.225304 -0.07583,-0.05567 -0.0065,-0.101568 0.336188,-0.222547 0.383,-0.135209 0.415684,-0.159572 0.289585,-0.21584 -0.07818,-0.03489 -0.142149,-0.08482 -0.142149,-0.11097 0,-0.02615 -0.160758,-0.06763 -0.35724,-0.09218 -0.196481,-0.02455 -0.357239,-0.07053 -0.357239,-0.102175 0,-0.09006 0.52887,-0.377488 0.966586,-0.525306 0.420757,-0.142093 0.528663,-0.229724 0.202561,-0.164504 -0.107172,0.02143 -0.194858,0.02336 -0.194858,0.0043 0,-0.01908 0.343438,-0.19892 0.763194,-0.399642 0.419756,-0.200722 0.790194,-0.410902 0.82319,-0.467066 0.09663,-0.164466 0.50995,-0.52431 0.602222,-0.52431 0.102138,0 0.105366,0.03495 0.01828,0.197666 -0.05362,0.100191 -0.04735,0.116842 0.03248,0.08621 0.05441,-0.02088 0.09893,-0.0097 0.09893,0.02492 0,0.03458 0.28498,-0.0065 0.633289,-0.09125 0.348308,-0.08477 0.97677,-0.188911 1.396579,-0.231424 2.024411,-0.205008 3.379161,0.445779 3.798092,1.824506 0.170202,0.560159 0.152373,1.773494 -0.03591,2.443775 -0.438209,1.559973 -1.691048,3.2553124 -3.370795,4.5613394 -1.33086,1.034763 -3.972003,2.669178 -4.857022,3.00566 -0.135796,0.05163 -0.140694,0.04475 -0.07277,-0.102333 0.04005,-0.08673 0.120117,-0.173006 0.177918,-0.191726 0.05781,-0.01872 0.157329,-0.09175 0.221164,-0.162284 0.15968,-0.176442 0.0279,-0.166722 -0.384727,0.02838 -0.534424,0.252692 -1.720174,0.730837 -2.258806,0.910844 -0.383987,0.128327 -0.62287,0.16558 -1.039243,0.162064 -0.362448,-0.0031 -0.497829,-0.02296 -0.410741,-0.06039 z m 4.98581,-3.748666 c 2.479782,-1.533564 4.583663,-3.7969804 4.857172,-5.2254824 0.03649,-0.190606 0.04719,-0.502111 0.02378,-0.692233 -0.03534,-0.286951 -0.06951,-0.355917 -0.201113,-0.405954 -0.300841,-0.114379 -1.434583,-0.04769 -2.336028,0.137418 -0.284434,0.05841 -0.341326,0.09511 -0.378245,0.244051 -0.0239,0.09642 -0.279388,0.745263 -0.567751,1.44188 -0.288371,0.696617 -0.67871,1.675778 -0.867423,2.175913 -0.188714,0.5001364 -0.475031,1.1723964 -0.636263,1.4939124 -0.341677,0.681368 -0.569031,1.201623 -0.52511,1.201623 0.01698,0 0.300919,-0.167008 0.630981,-0.371128 z M 70.47049,5.9403316 c -0.02158,-0.02158 -0.07761,-0.02389 -0.124495,-0.0051 -0.05181,0.02074 -0.03643,0.03613 0.03924,0.03924 0.06847,0.0028 0.106834,-0.01253 0.08525,-0.03411 z"
     id="path12"
     inkscape:connector-curvature="0" />
</svg>
